<svg xmlns="http://www.w3.org/2000/svg" enable-background="new 0 0 600 600" viewBox="0 0 600 600"><linearGradient id="a" x1="332.267" x2="310.135" y1="124.153" y2="271.206" gradientUnits="userSpaceOnUse"><stop class="stopColorcedcf9 svgShape" offset="0" stop-color="#e1f9ce" stop-opacity="0"/><stop class="stopColorc3d2ff svgShape" offset="1" stop-color="#c3f4ff"/></linearGradient><path fill="url(#a)" d="M500.16 419.172H101.4c-49.7 0-72.493-58.88-34.442-89.178.317-.258.644-.496.962-.763 8.675-6.802 14.336-16.756 14.336-31.31 3.38-19.084-15.268-24.17-20.255-57.254-8.784-58.137 21.087-96.336 54.478-115.779 111.327-64.828 322.599-64.828 413.552-2.101 17.508 12.095 26.778 46.25 19.69 62.37-43.593 99.281-19.968 126.1-1.706 161.106 17.519 33.58-8.338 72.91-47.856 72.91z"/><linearGradient id="b" x1="302.28" x2="302.28" y1="507.105" y2="398.942" gradientUnits="userSpaceOnUse"><stop class="stopColorcedcf9 svgShape" offset="0" stop-color="#e1f9ce" stop-opacity="0"/><stop class="stopColorc3d2ff svgShape" offset="1" stop-color="#c3f4ff"/></linearGradient><path fill="url(#b)" d="M556 464.988v1.185c-.159 24.828-39.855 37.194-179.368 36.592-18.302-.072-37.416-.386-56.828-.898-10.35 12.823-66.832 22.413-134.903 22.126-75.358-.333-136.36-12.662-136.25-27.54.01-1.76.872-3.485 2.517-5.146 7.09-7.13 6.524-17.007-.386-24.245-1.458-1.527-2.23-3.035-2.221-4.517 0-.431.01-.87.03-1.329.892-23.526 22.664-41.998 48.659-41.98l407.404.189c27.958.01 51.009 20.258 51.346 45.563z"/><path fill="#281211" d="M486.862 286.26h-1v-4h1v4zm0-8h-1v-4h1v4zm0-8h-1v-4h1v4zm0-8h-1v-4h1v4zm0-8h-1v-4h1v4zm0-8h-1v-4h1v4zm0-8h-1v-4h1v4zm0-8h-1v-4h1v4zm0-8h-1v-4h1v4zm0-8h-1v-4h1v4zm0-8h-1v-4h1v4zm0-8h-1v-4h1v4zm0-8h-1v-4h1v4zm-1.874-7.563a6.018 6.018 0 0 0-2.748-2.375l.392-.92a6.942 6.942 0 0 1 3.21 2.773l-.854.522zm-6.482-2.85h-4v-1h4v1zm-8 0h-4v-1h4v1zm-8 0h-4v-1h4v1zm-8 0h-4v-1h4v1zm-8 0h-4v-1h4v1zm-8 0h-4v-1h4v1zm-8 0h-4v-1h4v1zm-8 0h-4v-1h4v1zm-8 0h-4v-1h4v1zm-8 0h-4v-1h4v1zm-8 0h-4v-1h4v1zm-8 0h-4v-1h4v1zm-8 0h-4v-1h4v1zm-8 0h-4v-1h4v1z" class="color111228 svgShape"/><linearGradient id="c" x1="462.336" x2="499.218" y1="350.387" y2="350.387" gradientUnits="userSpaceOnUse"><stop class="stopColor909eff svgShape" offset="0" stop-color="#90ebff"/><stop class="stopColor6977e3 svgShape" offset="1" stop-color="#69cde3"/></linearGradient><path fill="url(#c)" d="M552.988 227.315h-28.376v246.144h28.376a3.01 3.01 0 0 0 3.012-3.012v-240.12a3.01 3.01 0 0 0-3.012-3.012z"/><linearGradient id="d" x1="517.191" x2="493.799" y1="350.387" y2="350.387" gradientUnits="userSpaceOnUse"><stop class="stopColor909eff svgShape" offset="0" stop-color="#90ebff"/><stop class="stopColor6977e3 svgShape" offset="1" stop-color="#69cde3"/></linearGradient><path fill="url(#d)" d="M539.967 230.327v240.12a3.01 3.01 0 0 1-3.011 3.012H418.302a3.01 3.01 0 0 1-3.012-3.012v-240.12a3.01 3.01 0 0 1 3.012-3.012h118.654a3.01 3.01 0 0 1 3.011 3.012z"/><path fill="#fff" d="M457.255 202.496h40.749v107.527h-40.749z" class="colorffffff svgShape" transform="rotate(90 477.63 256.26)"/><linearGradient id="e" x1="503.719" x2="503.719" y1="246.443" y2="242.585" gradientUnits="userSpaceOnUse"><stop class="stopColord1deff svgShape" offset="0" stop-color="#e5ffd1"/><stop class="stopColorb2c7ff svgShape" offset="1" stop-color="#b2f1ff"/></linearGradient><path fill="url(#e)" d="M486.361 242.585h34.716v3.858h-34.716z"/><linearGradient id="f" x1="503.719" x2="503.719" y1="269.937" y2="258.661" gradientUnits="userSpaceOnUse"><stop class="stopColord1deff svgShape" offset="0" stop-color="#e5ffd1"/><stop class="stopColorb2c7ff svgShape" offset="1" stop-color="#b2f1ff"/></linearGradient><path fill="url(#f)" d="M486.361 258.661h34.716v11.276h-34.716z"/><linearGradient id="g" x1="492.391" x2="492.391" y1="254.421" y2="249.586" gradientUnits="userSpaceOnUse"><stop class="stopColor909eff svgShape" offset="0" stop-color="#90ebff"/><stop class="stopColor6977e3 svgShape" offset="1" stop-color="#69cde3"/></linearGradient><path fill="url(#g)" d="M494.803 252.009a2.415 2.415 0 0 1-2.412 2.412 2.418 2.418 0 0 1 0-4.834 2.418 2.418 0 0 1 2.412 2.422z"/><linearGradient id="h" x1="499.654" x2="499.654" y1="254.421" y2="249.586" gradientUnits="userSpaceOnUse"><stop class="stopColorfadf68 svgShape" offset="0" stop-color="#a9fa68"/><stop class="stopColoreac250 svgShape" offset="1" stop-color="#9ae45f"/></linearGradient><path fill="url(#h)" d="M502.066 252.009a2.415 2.415 0 0 1-2.412 2.412 2.418 2.418 0 0 1 0-4.834 2.418 2.418 0 0 1 2.412 2.422z"/><linearGradient id="i" x1="506.917" x2="506.917" y1="254.421" y2="249.586" gradientUnits="userSpaceOnUse"><stop class="stopColor3dcfa4 svgShape" offset="0" stop-color="#3db5cf"/><stop class="stopColor30bb93 svgShape" offset="1" stop-color="#30a2bb"/></linearGradient><path fill="url(#i)" d="M509.329 252.009a2.415 2.415 0 0 1-2.412 2.412 2.418 2.418 0 0 1 0-4.834 2.418 2.418 0 0 1 2.412 2.422z"/><linearGradient id="j" x1="514.18" x2="514.18" y1="254.421" y2="249.586" gradientUnits="userSpaceOnUse"><stop class="stopColorf34b6d svgShape" offset="0" stop-color="#f3554b"/><stop class="stopColore24067 svgShape" offset="1" stop-color="#d85b53"/></linearGradient><path fill="url(#j)" d="M516.592 252.009a2.415 2.415 0 0 1-2.412 2.412 2.418 2.418 0 0 1 0-4.834 2.418 2.418 0 0 1 2.412 2.422z"/><linearGradient id="k" x1="467.062" x2="467.062" y1="269.934" y2="242.583" gradientUnits="userSpaceOnUse"><stop class="stopColord1deff svgShape" offset="0" stop-color="#e5ffd1"/><stop class="stopColorb2c7ff svgShape" offset="1" stop-color="#b2f1ff"/></linearGradient><path fill="url(#k)" d="M462.638 242.583h8.848v27.351h-8.848z"/><linearGradient id="l" x1="466.587" x2="462.81" y1="257.435" y2="266.807" gradientUnits="userSpaceOnUse"><stop class="stopColorebf2ff svgShape" offset="0" stop-color="#f4ffeb"/><stop class="stopColore1e8ff svgShape" offset="1" stop-color="#eeffe1"/></linearGradient><path fill="url(#l)" d="M464.352 244.298h5.419v23.921h-5.419z"/><linearGradient id="m" x1="452.709" x2="452.709" y1="269.934" y2="242.583" gradientUnits="userSpaceOnUse"><stop class="stopColord1deff svgShape" offset="0" stop-color="#e5ffd1"/><stop class="stopColorb2c7ff svgShape" offset="1" stop-color="#b2f1ff"/></linearGradient><path fill="url(#m)" d="M448.284 242.583h8.848v27.351h-8.848z"/><linearGradient id="n" x1="452.708" x2="452.708" y1="268.219" y2="244.298" gradientUnits="userSpaceOnUse"><stop class="stopColorebf2ff svgShape" offset="0" stop-color="#f4ffeb"/><stop class="stopColore1e8ff svgShape" offset="1" stop-color="#eeffe1"/></linearGradient><path fill="url(#n)" d="M449.999 244.298h5.419v23.921h-5.419z"/><linearGradient id="o" x1="438.355" x2="438.355" y1="269.934" y2="242.583" gradientUnits="userSpaceOnUse"><stop class="stopColord1deff svgShape" offset="0" stop-color="#e5ffd1"/><stop class="stopColorb2c7ff svgShape" offset="1" stop-color="#b2f1ff"/></linearGradient><path fill="url(#o)" d="M433.931 242.583h8.848v27.351h-8.848z"/><linearGradient id="p" x1="438.355" x2="438.355" y1="268.219" y2="244.298" gradientUnits="userSpaceOnUse"><stop class="stopColorebf2ff svgShape" offset="0" stop-color="#f4ffeb"/><stop class="stopColore1e8ff svgShape" offset="1" stop-color="#eeffe1"/></linearGradient><path fill="url(#p)" d="M435.646 244.298h5.419v23.921h-5.419z"/><path fill="#fff" d="M457.255 249.559h40.749v107.527h-40.749z" class="colorffffff svgShape" transform="rotate(90 477.63 303.323)"/><linearGradient id="q" x1="503.719" x2="503.719" y1="293.506" y2="289.648" gradientUnits="userSpaceOnUse"><stop class="stopColord1deff svgShape" offset="0" stop-color="#e5ffd1"/><stop class="stopColorb2c7ff svgShape" offset="1" stop-color="#b2f1ff"/></linearGradient><path fill="url(#q)" d="M486.361 289.648h34.716v3.858h-34.716z"/><linearGradient id="r" x1="503.719" x2="503.719" y1="316.999" y2="305.724" gradientUnits="userSpaceOnUse"><stop class="stopColord1deff svgShape" offset="0" stop-color="#e5ffd1"/><stop class="stopColorb2c7ff svgShape" offset="1" stop-color="#b2f1ff"/></linearGradient><path fill="url(#r)" d="M486.361 305.724h34.716V317h-34.716z"/><linearGradient id="s" x1="492.391" x2="492.391" y1="301.483" y2="296.649" gradientUnits="userSpaceOnUse"><stop class="stopColor909eff svgShape" offset="0" stop-color="#90ebff"/><stop class="stopColor6977e3 svgShape" offset="1" stop-color="#69cde3"/></linearGradient><path fill="url(#s)" d="M494.803 299.072a2.415 2.415 0 0 1-2.412 2.411 2.418 2.418 0 0 1 0-4.834 2.418 2.418 0 0 1 2.412 2.423z"/><linearGradient id="t" x1="499.654" x2="499.654" y1="301.483" y2="296.649" gradientUnits="userSpaceOnUse"><stop class="stopColorfadf68 svgShape" offset="0" stop-color="#a9fa68"/><stop class="stopColoreac250 svgShape" offset="1" stop-color="#9ae45f"/></linearGradient><path fill="url(#t)" d="M502.066 299.072a2.415 2.415 0 0 1-2.412 2.411 2.418 2.418 0 0 1 0-4.834 2.418 2.418 0 0 1 2.412 2.423z"/><linearGradient id="u" x1="506.917" x2="506.917" y1="301.483" y2="296.649" gradientUnits="userSpaceOnUse"><stop class="stopColor3dcfa4 svgShape" offset="0" stop-color="#3db5cf"/><stop class="stopColor30bb93 svgShape" offset="1" stop-color="#30a2bb"/></linearGradient><path fill="url(#u)" d="M509.329 299.072a2.415 2.415 0 0 1-2.412 2.411 2.418 2.418 0 0 1 0-4.834 2.418 2.418 0 0 1 2.412 2.423z"/><linearGradient id="v" x1="514.18" x2="514.18" y1="301.483" y2="296.649" gradientUnits="userSpaceOnUse"><stop class="stopColorf34b6d svgShape" offset="0" stop-color="#f3554b"/><stop class="stopColore24067 svgShape" offset="1" stop-color="#d85b53"/></linearGradient><path fill="url(#v)" d="M516.592 299.072a2.415 2.415 0 0 1-2.412 2.411 2.418 2.418 0 0 1 0-4.834 2.418 2.418 0 0 1 2.412 2.423z"/><linearGradient id="w" x1="467.062" x2="467.062" y1="316.997" y2="289.646" gradientUnits="userSpaceOnUse"><stop class="stopColord1deff svgShape" offset="0" stop-color="#e5ffd1"/><stop class="stopColorb2c7ff svgShape" offset="1" stop-color="#b2f1ff"/></linearGradient><path fill="url(#w)" d="M462.638 289.646h8.848v27.351h-8.848z"/><linearGradient id="x" x1="467.062" x2="467.062" y1="315.282" y2="291.361" gradientUnits="userSpaceOnUse"><stop class="stopColorebf2ff svgShape" offset="0" stop-color="#f4ffeb"/><stop class="stopColore1e8ff svgShape" offset="1" stop-color="#eeffe1"/></linearGradient><path fill="url(#x)" d="M464.352 291.361h5.419v23.921h-5.419z"/><linearGradient id="y" x1="452.709" x2="452.709" y1="316.997" y2="289.646" gradientUnits="userSpaceOnUse"><stop class="stopColord1deff svgShape" offset="0" stop-color="#e5ffd1"/><stop class="stopColorb2c7ff svgShape" offset="1" stop-color="#b2f1ff"/></linearGradient><path fill="url(#y)" d="M448.284 289.646h8.848v27.351h-8.848z"/><linearGradient id="z" x1="452.708" x2="452.708" y1="315.282" y2="291.361" gradientUnits="userSpaceOnUse"><stop class="stopColorebf2ff svgShape" offset="0" stop-color="#f4ffeb"/><stop class="stopColore1e8ff svgShape" offset="1" stop-color="#eeffe1"/></linearGradient><path fill="url(#z)" d="M449.999 291.361h5.419v23.921h-5.419z"/><linearGradient id="A" x1="438.355" x2="438.355" y1="316.997" y2="289.646" gradientUnits="userSpaceOnUse"><stop class="stopColord1deff svgShape" offset="0" stop-color="#e5ffd1"/><stop class="stopColorb2c7ff svgShape" offset="1" stop-color="#b2f1ff"/></linearGradient><path fill="url(#A)" d="M433.931 289.646h8.848v27.351h-8.848z"/><linearGradient id="B" x1="438.355" x2="438.355" y1="315.282" y2="291.361" gradientUnits="userSpaceOnUse"><stop class="stopColorebf2ff svgShape" offset="0" stop-color="#f4ffeb"/><stop class="stopColore1e8ff svgShape" offset="1" stop-color="#eeffe1"/></linearGradient><path fill="url(#B)" d="M435.646 291.361h5.419v23.921h-5.419z"/><path fill="#fff" d="M457.255 296.622h40.749v107.527h-40.749z" class="colorffffff svgShape" transform="rotate(90 477.63 350.385)"/><linearGradient id="C" x1="503.719" x2="503.719" y1="340.569" y2="336.711" gradientUnits="userSpaceOnUse"><stop class="stopColord1deff svgShape" offset="0" stop-color="#e5ffd1"/><stop class="stopColorb2c7ff svgShape" offset="1" stop-color="#b2f1ff"/></linearGradient><path fill="url(#C)" d="M486.361 336.711h34.716v3.858h-34.716z"/><linearGradient id="D" x1="503.719" x2="503.719" y1="364.062" y2="352.787" gradientUnits="userSpaceOnUse"><stop class="stopColord1deff svgShape" offset="0" stop-color="#e5ffd1"/><stop class="stopColorb2c7ff svgShape" offset="1" stop-color="#b2f1ff"/></linearGradient><path fill="url(#D)" d="M486.361 352.787h34.716v11.276h-34.716z"/><linearGradient id="E" x1="492.391" x2="492.391" y1="348.546" y2="343.712" gradientUnits="userSpaceOnUse"><stop class="stopColor909eff svgShape" offset="0" stop-color="#90ebff"/><stop class="stopColor6977e3 svgShape" offset="1" stop-color="#69cde3"/></linearGradient><path fill="url(#E)" d="M494.803 346.135a2.415 2.415 0 0 1-2.412 2.411 2.418 2.418 0 0 1 0-4.834 2.418 2.418 0 0 1 2.412 2.423z"/><linearGradient id="F" x1="499.654" x2="499.654" y1="348.546" y2="343.712" gradientUnits="userSpaceOnUse"><stop class="stopColorfadf68 svgShape" offset="0" stop-color="#a9fa68"/><stop class="stopColoreac250 svgShape" offset="1" stop-color="#9ae45f"/></linearGradient><path fill="url(#F)" d="M502.066 346.135a2.415 2.415 0 0 1-2.412 2.411 2.418 2.418 0 0 1 0-4.834 2.418 2.418 0 0 1 2.412 2.423z"/><linearGradient id="G" x1="506.917" x2="506.917" y1="348.546" y2="343.712" gradientUnits="userSpaceOnUse"><stop class="stopColor3dcfa4 svgShape" offset="0" stop-color="#3db5cf"/><stop class="stopColor30bb93 svgShape" offset="1" stop-color="#30a2bb"/></linearGradient><path fill="url(#G)" d="M509.329 346.135a2.415 2.415 0 0 1-2.412 2.411 2.418 2.418 0 0 1 0-4.834 2.418 2.418 0 0 1 2.412 2.423z"/><linearGradient id="H" x1="514.18" x2="514.18" y1="348.546" y2="343.712" gradientUnits="userSpaceOnUse"><stop class="stopColorf34b6d svgShape" offset="0" stop-color="#f3554b"/><stop class="stopColore24067 svgShape" offset="1" stop-color="#d85b53"/></linearGradient><path fill="url(#H)" d="M516.592 346.135a2.415 2.415 0 0 1-2.412 2.411 2.418 2.418 0 0 1 0-4.834 2.418 2.418 0 0 1 2.412 2.423z"/><linearGradient id="I" x1="467.062" x2="467.062" y1="364.06" y2="336.709" gradientUnits="userSpaceOnUse"><stop class="stopColord1deff svgShape" offset="0" stop-color="#e5ffd1"/><stop class="stopColorb2c7ff svgShape" offset="1" stop-color="#b2f1ff"/></linearGradient><path fill="url(#I)" d="M462.638 336.709h8.848v27.351h-8.848z"/><linearGradient id="J" x1="467.062" x2="467.062" y1="362.345" y2="338.424" gradientUnits="userSpaceOnUse"><stop class="stopColorebf2ff svgShape" offset="0" stop-color="#f4ffeb"/><stop class="stopColore1e8ff svgShape" offset="1" stop-color="#eeffe1"/></linearGradient><path fill="url(#J)" d="M464.352 338.424h5.419v23.921h-5.419z"/><linearGradient id="K" x1="452.709" x2="452.709" y1="364.06" y2="336.709" gradientUnits="userSpaceOnUse"><stop class="stopColord1deff svgShape" offset="0" stop-color="#e5ffd1"/><stop class="stopColorb2c7ff svgShape" offset="1" stop-color="#b2f1ff"/></linearGradient><path fill="url(#K)" d="M448.284 336.709h8.848v27.351h-8.848z"/><linearGradient id="L" x1="452.708" x2="452.708" y1="362.345" y2="338.424" gradientUnits="userSpaceOnUse"><stop class="stopColorebf2ff svgShape" offset="0" stop-color="#f4ffeb"/><stop class="stopColore1e8ff svgShape" offset="1" stop-color="#eeffe1"/></linearGradient><path fill="url(#L)" d="M449.999 338.424h5.419v23.921h-5.419z"/><linearGradient id="M" x1="438.355" x2="438.355" y1="364.06" y2="336.709" gradientUnits="userSpaceOnUse"><stop class="stopColord1deff svgShape" offset="0" stop-color="#e5ffd1"/><stop class="stopColorb2c7ff svgShape" offset="1" stop-color="#b2f1ff"/></linearGradient><path fill="url(#M)" d="M433.931 336.709h8.848v27.351h-8.848z"/><linearGradient id="N" x1="438.355" x2="438.355" y1="362.345" y2="338.424" gradientUnits="userSpaceOnUse"><stop class="stopColorebf2ff svgShape" offset="0" stop-color="#f4ffeb"/><stop class="stopColore1e8ff svgShape" offset="1" stop-color="#eeffe1"/></linearGradient><path fill="url(#N)" d="M435.646 338.424h5.419v23.921h-5.419z"/><path fill="#fff" d="M457.255 343.685h40.749v107.527h-40.749z" class="colorffffff svgShape" transform="rotate(90 477.63 397.448)"/><linearGradient id="O" x1="503.719" x2="503.719" y1="387.632" y2="383.773" gradientUnits="userSpaceOnUse"><stop class="stopColord1deff svgShape" offset="0" stop-color="#e5ffd1"/><stop class="stopColorb2c7ff svgShape" offset="1" stop-color="#b2f1ff"/></linearGradient><path fill="url(#O)" d="M486.361 383.773h34.716v3.858h-34.716z"/><linearGradient id="P" x1="503.719" x2="503.719" y1="411.125" y2="399.85" gradientUnits="userSpaceOnUse"><stop class="stopColord1deff svgShape" offset="0" stop-color="#e5ffd1"/><stop class="stopColorb2c7ff svgShape" offset="1" stop-color="#b2f1ff"/></linearGradient><path fill="url(#P)" d="M486.361 399.85h34.716v11.276h-34.716z"/><linearGradient id="Q" x1="492.391" x2="492.391" y1="395.609" y2="390.775" gradientUnits="userSpaceOnUse"><stop class="stopColor909eff svgShape" offset="0" stop-color="#90ebff"/><stop class="stopColor6977e3 svgShape" offset="1" stop-color="#69cde3"/></linearGradient><path fill="url(#Q)" d="M494.803 393.198a2.415 2.415 0 0 1-2.412 2.411 2.418 2.418 0 0 1 0-4.834 2.418 2.418 0 0 1 2.412 2.423z"/><linearGradient id="R" x1="499.654" x2="499.654" y1="395.609" y2="390.775" gradientUnits="userSpaceOnUse"><stop class="stopColorfadf68 svgShape" offset="0" stop-color="#a9fa68"/><stop class="stopColoreac250 svgShape" offset="1" stop-color="#9ae45f"/></linearGradient><path fill="url(#R)" d="M502.066 393.198a2.415 2.415 0 0 1-2.412 2.411 2.418 2.418 0 0 1 0-4.834 2.418 2.418 0 0 1 2.412 2.423z"/><linearGradient id="S" x1="506.917" x2="506.917" y1="395.609" y2="390.775" gradientUnits="userSpaceOnUse"><stop class="stopColor3dcfa4 svgShape" offset="0" stop-color="#3db5cf"/><stop class="stopColor30bb93 svgShape" offset="1" stop-color="#30a2bb"/></linearGradient><path fill="url(#S)" d="M509.329 393.198a2.415 2.415 0 0 1-2.412 2.411 2.418 2.418 0 0 1 0-4.834 2.418 2.418 0 0 1 2.412 2.423z"/><linearGradient id="T" x1="514.18" x2="514.18" y1="395.609" y2="390.775" gradientUnits="userSpaceOnUse"><stop class="stopColorf34b6d svgShape" offset="0" stop-color="#f3554b"/><stop class="stopColore24067 svgShape" offset="1" stop-color="#d85b53"/></linearGradient><path fill="url(#T)" d="M516.592 393.198a2.415 2.415 0 0 1-2.412 2.411 2.418 2.418 0 0 1 0-4.834 2.418 2.418 0 0 1 2.412 2.423z"/><linearGradient id="U" x1="467.062" x2="467.062" y1="411.123" y2="383.772" gradientUnits="userSpaceOnUse"><stop class="stopColord1deff svgShape" offset="0" stop-color="#e5ffd1"/><stop class="stopColorb2c7ff svgShape" offset="1" stop-color="#b2f1ff"/></linearGradient><path fill="url(#U)" d="M462.638 383.772h8.848v27.351h-8.848z"/><linearGradient id="V" x1="467.062" x2="467.062" y1="409.408" y2="385.486" gradientUnits="userSpaceOnUse"><stop class="stopColorebf2ff svgShape" offset="0" stop-color="#f4ffeb"/><stop class="stopColore1e8ff svgShape" offset="1" stop-color="#eeffe1"/></linearGradient><path fill="url(#V)" d="M464.352 385.486h5.419v23.921h-5.419z"/><linearGradient id="W" x1="452.709" x2="452.709" y1="411.123" y2="383.772" gradientUnits="userSpaceOnUse"><stop class="stopColord1deff svgShape" offset="0" stop-color="#e5ffd1"/><stop class="stopColorb2c7ff svgShape" offset="1" stop-color="#b2f1ff"/></linearGradient><path fill="url(#W)" d="M448.284 383.772h8.848v27.351h-8.848z"/><linearGradient id="X" x1="452.708" x2="452.708" y1="409.408" y2="385.486" gradientUnits="userSpaceOnUse"><stop class="stopColorebf2ff svgShape" offset="0" stop-color="#f4ffeb"/><stop class="stopColore1e8ff svgShape" offset="1" stop-color="#eeffe1"/></linearGradient><path fill="url(#X)" d="M449.999 385.486h5.419v23.921h-5.419z"/><linearGradient id="Y" x1="438.355" x2="438.355" y1="411.123" y2="383.772" gradientUnits="userSpaceOnUse"><stop class="stopColord1deff svgShape" offset="0" stop-color="#e5ffd1"/><stop class="stopColorb2c7ff svgShape" offset="1" stop-color="#b2f1ff"/></linearGradient><path fill="url(#Y)" d="M433.931 383.772h8.848v27.351h-8.848z"/><linearGradient id="Z" x1="438.355" x2="438.355" y1="409.408" y2="385.486" gradientUnits="userSpaceOnUse"><stop class="stopColorebf2ff svgShape" offset="0" stop-color="#f4ffeb"/><stop class="stopColore1e8ff svgShape" offset="1" stop-color="#eeffe1"/></linearGradient><path fill="url(#Z)" d="M435.646 385.486h5.419v23.921h-5.419z"/><path fill="#fff" d="M457.255 390.748h40.749v107.527h-40.749z" class="colorffffff svgShape" transform="rotate(90 477.63 444.511)"/><linearGradient id="aa" x1="503.719" x2="503.719" y1="434.695" y2="430.836" gradientUnits="userSpaceOnUse"><stop class="stopColord1deff svgShape" offset="0" stop-color="#e5ffd1"/><stop class="stopColorb2c7ff svgShape" offset="1" stop-color="#b2f1ff"/></linearGradient><path fill="url(#aa)" d="M486.361 430.836h34.716v3.858h-34.716z"/><linearGradient id="ab" x1="503.719" x2="503.719" y1="458.188" y2="446.913" gradientUnits="userSpaceOnUse"><stop class="stopColord1deff svgShape" offset="0" stop-color="#e5ffd1"/><stop class="stopColorb2c7ff svgShape" offset="1" stop-color="#b2f1ff"/></linearGradient><path fill="url(#ab)" d="M486.361 446.913h34.716v11.276h-34.716z"/><linearGradient id="ac" x1="492.391" x2="492.391" y1="442.672" y2="437.838" gradientUnits="userSpaceOnUse"><stop class="stopColor909eff svgShape" offset="0" stop-color="#90ebff"/><stop class="stopColor6977e3 svgShape" offset="1" stop-color="#69cde3"/></linearGradient><path fill="url(#ac)" d="M494.803 440.26a2.415 2.415 0 0 1-2.412 2.412 2.418 2.418 0 0 1 0-4.834 2.418 2.418 0 0 1 2.412 2.423z"/><linearGradient id="ad" x1="499.654" x2="499.654" y1="442.672" y2="437.838" gradientUnits="userSpaceOnUse"><stop class="stopColorfadf68 svgShape" offset="0" stop-color="#a9fa68"/><stop class="stopColoreac250 svgShape" offset="1" stop-color="#9ae45f"/></linearGradient><path fill="url(#ad)" d="M502.066 440.26a2.415 2.415 0 0 1-2.412 2.412 2.418 2.418 0 0 1 0-4.834 2.418 2.418 0 0 1 2.412 2.423z"/><linearGradient id="ae" x1="506.917" x2="506.917" y1="442.672" y2="437.838" gradientUnits="userSpaceOnUse"><stop class="stopColor3dcfa4 svgShape" offset="0" stop-color="#3db5cf"/><stop class="stopColor30bb93 svgShape" offset="1" stop-color="#30a2bb"/></linearGradient><path fill="url(#ae)" d="M509.329 440.26a2.415 2.415 0 0 1-2.412 2.412 2.418 2.418 0 0 1 0-4.834 2.418 2.418 0 0 1 2.412 2.423z"/><linearGradient id="af" x1="514.18" x2="514.18" y1="442.672" y2="437.838" gradientUnits="userSpaceOnUse"><stop class="stopColorf34b6d svgShape" offset="0" stop-color="#f3554b"/><stop class="stopColore24067 svgShape" offset="1" stop-color="#d85b53"/></linearGradient><path fill="url(#af)" d="M516.592 440.26a2.415 2.415 0 0 1-2.412 2.412 2.418 2.418 0 0 1 0-4.834 2.418 2.418 0 0 1 2.412 2.423z"/><linearGradient id="ag" x1="467.062" x2="467.062" y1="458.185" y2="430.834" gradientUnits="userSpaceOnUse"><stop class="stopColord1deff svgShape" offset="0" stop-color="#e5ffd1"/><stop class="stopColorb2c7ff svgShape" offset="1" stop-color="#b2f1ff"/></linearGradient><path fill="url(#ag)" d="M462.638 430.834h8.848v27.351h-8.848z"/><linearGradient id="ah" x1="467.062" x2="467.062" y1="456.471" y2="432.549" gradientUnits="userSpaceOnUse"><stop class="stopColorebf2ff svgShape" offset="0" stop-color="#f4ffeb"/><stop class="stopColore1e8ff svgShape" offset="1" stop-color="#eeffe1"/></linearGradient><path fill="url(#ah)" d="M464.352 432.549h5.419v23.921h-5.419z"/><linearGradient id="ai" x1="452.709" x2="452.709" y1="458.185" y2="430.834" gradientUnits="userSpaceOnUse"><stop class="stopColord1deff svgShape" offset="0" stop-color="#e5ffd1"/><stop class="stopColorb2c7ff svgShape" offset="1" stop-color="#b2f1ff"/></linearGradient><path fill="url(#ai)" d="M448.284 430.834h8.848v27.351h-8.848z"/><linearGradient id="aj" x1="452.708" x2="452.708" y1="456.471" y2="432.549" gradientUnits="userSpaceOnUse"><stop class="stopColorebf2ff svgShape" offset="0" stop-color="#f4ffeb"/><stop class="stopColore1e8ff svgShape" offset="1" stop-color="#eeffe1"/></linearGradient><path fill="url(#aj)" d="M449.999 432.549h5.419v23.921h-5.419z"/><linearGradient id="ak" x1="438.355" x2="438.355" y1="458.185" y2="430.834" gradientUnits="userSpaceOnUse"><stop class="stopColord1deff svgShape" offset="0" stop-color="#e5ffd1"/><stop class="stopColorb2c7ff svgShape" offset="1" stop-color="#b2f1ff"/></linearGradient><path fill="url(#ak)" d="M433.931 430.834h8.848v27.351h-8.848z"/><linearGradient id="al" x1="438.355" x2="438.355" y1="456.471" y2="432.549" gradientUnits="userSpaceOnUse"><stop class="stopColorebf2ff svgShape" offset="0" stop-color="#f4ffeb"/><stop class="stopColore1e8ff svgShape" offset="1" stop-color="#eeffe1"/></linearGradient><path fill="url(#al)" d="M435.646 432.549h5.419v23.921h-5.419z"/><linearGradient id="am" x1="354.804" x2="378.179" y1="236.471" y2="239.221" gradientUnits="userSpaceOnUse"><stop class="stopColord1deff svgShape" offset="0" stop-color="#e5ffd1"/><stop class="stopColorb2c7ff svgShape" offset="1" stop-color="#b2f1ff"/></linearGradient><path fill="url(#am)" d="M395.747 148.756v10.237h-.01v169.572a9.96 9.96 0 0 1-9.973 9.973h-25.157V138.802h25.197c5.494 0 9.943 4.45 9.943 9.954z"/><path fill="#fff" d="M387.88 158.992v169.571a9.963 9.963 0 0 1-9.974 9.975H199.077c-5.518 0-9.989-4.457-9.989-9.975V148.795c0-.36.022-.711.058-1.056-.036.338-.05.675-.05 1.02v10.233H387.88z" class="colorffffff svgShape"/><linearGradient id="an" x1="241.31" x2="276.813" y1="100.43" y2="139.188" gradientUnits="userSpaceOnUse"><stop class="stopColord1deff svgShape" offset="0" stop-color="#e5ffd1"/><stop class="stopColorb2c7ff svgShape" offset="1" stop-color="#b2f1ff"/></linearGradient><path fill="url(#an)" d="M387.888 148.758v10.234H189.095v-10.234c0-.344.015-.681.05-1.019.05-.502.137-.99.266-1.47a9.928 9.928 0 0 1 9.63-7.464H377.95c5.49 0 9.939 4.45 9.939 9.953z"/><path fill="#fff" d="M214.415 148.892a3.055 3.055 0 1 0 6.113 0 3.059 3.059 0 0 0-3.06-3.053 3.052 3.052 0 0 0-3.053 3.053zM205.68 148.892a3.055 3.055 0 1 0 6.114 0 3.059 3.059 0 0 0-3.06-3.053 3.052 3.052 0 0 0-3.053 3.053zM196.946 148.892a3.055 3.055 0 1 0 6.113 0 3.059 3.059 0 0 0-3.06-3.053 3.052 3.052 0 0 0-3.053 3.053z" class="colorffffff svgShape"/><circle cx="482.987" cy="179.929" r="7.627" fill="#ff3629" class="colorff4129 svgShape"/><linearGradient id="ao" x1="232.978" x2="251.513" y1="226.449" y2="226.449" gradientUnits="userSpaceOnUse"><stop class="stopColor909eff svgShape" offset="0" stop-color="#90ebff"/><stop class="stopColor6977e3 svgShape" offset="1" stop-color="#69cde3"/></linearGradient><path fill="url(#ao)" d="M255.968 173.37h-12.807v106.158h12.807a2.467 2.467 0 0 0 2.47-2.47V175.84a2.467 2.467 0 0 0-2.47-2.47z"/><linearGradient id="ap" x1="237.969" x2="182.41" y1="195.743" y2="292.033" gradientUnits="userSpaceOnUse"><stop class="stopColor909eff svgShape" offset="0" stop-color="#90ebff"/><stop class="stopColor6977e3 svgShape" offset="1" stop-color="#69cde3"/></linearGradient><path fill="url(#ap)" d="M255.298 175.84v101.217a2.467 2.467 0 0 1-2.47 2.47h-65.153a2.467 2.467 0 0 1-2.47-2.47V175.84a2.467 2.467 0 0 1 2.47-2.47h65.153a2.467 2.467 0 0 1 2.47 2.47z"/><path fill="#fff" d="M192.921 190.695h19.56v3.82h-19.56zM202.701 202.405h26.118v3.82h-26.118zM202.701 214.115h43.212v3.82h-43.212zM202.701 225.826h31.218v3.82h-31.218zM194.266 237.536h19.56v3.82h-19.56zM202.701 249.247h26.118v3.82h-26.118zM193.805 260.957h19.56v3.82h-19.56z" class="colorffffff svgShape"/><linearGradient id="aq" x1="355.957" x2="365.696" y1="202.961" y2="202.961" gradientUnits="userSpaceOnUse"><stop class="stopColord1deff svgShape" offset="0" stop-color="#e5ffd1"/><stop class="stopColorb2c7ff svgShape" offset="1" stop-color="#b2f1ff"/></linearGradient><path fill="url(#aq)" d="M367.443 173.37h-6.372v59.183h6.372a2.5 2.5 0 0 0 2.5-2.5V175.87a2.506 2.506 0 0 0-2.5-2.501z"/><linearGradient id="ar" x1="319.835" x2="314.991" y1="183.247" y2="237.542" gradientUnits="userSpaceOnUse"><stop class="stopColorebf2ff svgShape" offset="0" stop-color="#f4ffeb"/><stop class="stopColore1e8ff svgShape" offset="1" stop-color="#eeffe1"/></linearGradient><path fill="url(#ar)" d="M367.2 175.87v54.182a2.5 2.5 0 0 1-2.501 2.501h-93.256a2.491 2.491 0 0 1-2.49-2.5V175.87a2.498 2.498 0 0 1 2.49-2.501H364.7a2.506 2.506 0 0 1 2.501 2.5z"/><linearGradient id="as" x1="355.957" x2="365.696" y1="258.881" y2="258.881" gradientUnits="userSpaceOnUse"><stop class="stopColord1deff svgShape" offset="0" stop-color="#e5ffd1"/><stop class="stopColorb2c7ff svgShape" offset="1" stop-color="#b2f1ff"/></linearGradient><path fill="url(#as)" d="M367.443 238.627h-6.372v40.508h6.372a2.5 2.5 0 0 0 2.5-2.5v-35.507a2.506 2.506 0 0 0-2.5-2.5z"/><linearGradient id="at" x1="319.348" x2="315.845" y1="244.62" y2="283.898" gradientUnits="userSpaceOnUse"><stop class="stopColorebf2ff svgShape" offset="0" stop-color="#f4ffeb"/><stop class="stopColore1e8ff svgShape" offset="1" stop-color="#eeffe1"/></linearGradient><path fill="url(#at)" d="M367.2 241.128v35.506a2.5 2.5 0 0 1-2.501 2.501h-93.256a2.491 2.491 0 0 1-2.49-2.5v-35.507a2.498 2.498 0 0 1 2.49-2.5H364.7a2.506 2.506 0 0 1 2.501 2.5z"/><path fill="#503937" d="M290.45 224.557c-.56 0-1.013-.453-1.013-1.012v-41.168a1.012 1.012 0 1 1 2.026 0v41.168c0 .559-.453 1.012-1.013 1.012z" class="color373a50 svgShape"/><linearGradient id="au" x1="286.456" x2="294.193" y1="194.659" y2="194.659" gradientUnits="userSpaceOnUse"><stop class="stopColor909eff svgShape" offset="0" stop-color="#90ebff"/><stop class="stopColor6977e3 svgShape" offset="1" stop-color="#69cde3"/></linearGradient><path fill="url(#au)" d="M294.193 189.188v10.962a.592.592 0 0 1-.592.592h-6.553a.593.593 0 0 1-.592-.592v-10.962c0-.327.265-.612.592-.612h6.553c.327 0 .592.285.592.612z"/><path fill="#503937" d="M308.95 224.557c-.56 0-1.013-.453-1.013-1.012v-41.168a1.012 1.012 0 1 1 2.025 0v41.168c0 .559-.453 1.012-1.012 1.012z" class="color373a50 svgShape"/><linearGradient id="av" x1="304.956" x2="312.693" y1="200.742" y2="200.742" gradientUnits="userSpaceOnUse"><stop class="stopColorf34b6d svgShape" offset="0" stop-color="#f3554b"/><stop class="stopColore24067 svgShape" offset="1" stop-color="#d85b53"/></linearGradient><path fill="url(#av)" d="M312.693 195.271v10.963a.592.592 0 0 1-.592.591h-6.553a.593.593 0 0 1-.592-.591V195.27c0-.326.265-.612.592-.612h6.553c.327 0 .592.286.592.612z"/><path fill="#503937" d="M327.45 224.557c-.56 0-1.012-.453-1.012-1.012v-41.168a1.012 1.012 0 1 1 2.025 0v41.168c0 .559-.453 1.012-1.012 1.012z" class="color373a50 svgShape"/><linearGradient id="aw" x1="323.456" x2="331.193" y1="209.044" y2="209.044" gradientUnits="userSpaceOnUse"><stop class="stopColorfadf68 svgShape" offset="0" stop-color="#a9fa68"/><stop class="stopColoreac250 svgShape" offset="1" stop-color="#9ae45f"/></linearGradient><path fill="url(#aw)" d="M331.193 203.573v10.962a.592.592 0 0 1-.592.592h-6.553a.593.593 0 0 1-.592-.592v-10.962c0-.327.265-.613.592-.613h6.553c.327 0 .592.286.592.613z"/><path fill="#503937" d="M345.95 224.557c-.56 0-1.012-.453-1.012-1.012v-41.168a1.012 1.012 0 1 1 2.025 0v41.168c0 .559-.453 1.012-1.013 1.012z" class="color373a50 svgShape"/><linearGradient id="ax" x1="341.956" x2="349.693" y1="205.105" y2="205.105" gradientUnits="userSpaceOnUse"><stop class="stopColor3dcfa4 svgShape" offset="0" stop-color="#3db5cf"/><stop class="stopColor30bb93 svgShape" offset="1" stop-color="#30a2bb"/></linearGradient><path fill="url(#ax)" d="M349.693 199.634v10.963a.592.592 0 0 1-.592.592h-6.553a.593.593 0 0 1-.592-.592v-10.963c0-.326.265-.612.592-.612h6.553c.326 0 .592.286.592.612z"/><linearGradient id="ay" x1="287" x2="285.501" y1="253.377" y2="270.181" gradientUnits="userSpaceOnUse"><stop class="stopColor909eff svgShape" offset="0" stop-color="#90ebff"/><stop class="stopColor6977e3 svgShape" offset="1" stop-color="#69cde3"/></linearGradient><circle cx="286.456" cy="259.479" r="10.407" fill="url(#ay)"/><path fill="#fff" d="M291.004 264.045h-9.096a4.552 4.552 0 0 1 4.548-4.432 4.552 4.552 0 0 1 4.548 4.432zM284.643 256.725a1.813 1.813 0 1 1 3.627 0 1.813 1.813 0 0 1-3.627 0z" class="colorffffff svgShape"/><linearGradient id="az" x1="304.058" x2="335.174" y1="252.183" y2="252.183" gradientUnits="userSpaceOnUse"><stop class="stopColord1deff svgShape" offset="0" stop-color="#e5ffd1"/><stop class="stopColorb2c7ff svgShape" offset="1" stop-color="#b2f1ff"/></linearGradient><path fill="url(#az)" d="M304.058 249.725h31.116v4.915h-31.116z"/><linearGradient id="aA" x1="304.058" x2="358.834" y1="261.322" y2="261.322" gradientUnits="userSpaceOnUse"><stop class="stopColord1deff svgShape" offset="0" stop-color="#e5ffd1"/><stop class="stopColorb2c7ff svgShape" offset="1" stop-color="#b2f1ff"/></linearGradient><path fill="url(#aA)" d="M304.058 260.112h54.776v2.419h-54.776z"/><linearGradient id="aB" x1="304.058" x2="358.834" y1="266.828" y2="266.828" gradientUnits="userSpaceOnUse"><stop class="stopColord1deff svgShape" offset="0" stop-color="#e5ffd1"/><stop class="stopColorb2c7ff svgShape" offset="1" stop-color="#b2f1ff"/></linearGradient><path fill="url(#aB)" d="M323.748 265.619h9.915v2.419h-9.915z"/><linearGradient id="aC" x1="304.058" x2="358.834" y1="266.828" y2="266.828" gradientUnits="userSpaceOnUse"><stop class="stopColord1deff svgShape" offset="0" stop-color="#e5ffd1"/><stop class="stopColorb2c7ff svgShape" offset="1" stop-color="#b2f1ff"/></linearGradient><path fill="url(#aC)" d="M304.058 265.619h16.032v2.419h-16.032z"/><linearGradient id="aD" x1="272.319" x2="288.619" y1="311.362" y2="311.362" gradientUnits="userSpaceOnUse"><stop class="stopColorebf2ff svgShape" offset="0" stop-color="#f4ffeb"/><stop class="stopColore1e8ff svgShape" offset="1" stop-color="#eeffe1"/></linearGradient><path fill="url(#aD)" d="M272.319 296.581h16.3v29.56h-16.3z"/><linearGradient id="aE" x1="272.319" x2="288.619" y1="317.127" y2="317.127" gradientUnits="userSpaceOnUse"><stop class="stopColorfadf68 svgShape" offset="0" stop-color="#a9fa68"/><stop class="stopColoreac250 svgShape" offset="1" stop-color="#9ae45f"/></linearGradient><path fill="url(#aE)" d="M272.319 308.113h16.3v18.029h-16.3z"/><linearGradient id="aF" x1="297.39" x2="313.69" y1="311.362" y2="311.362" gradientUnits="userSpaceOnUse"><stop class="stopColorebf2ff svgShape" offset="0" stop-color="#f4ffeb"/><stop class="stopColore1e8ff svgShape" offset="1" stop-color="#eeffe1"/></linearGradient><path fill="url(#aF)" d="M297.39 296.581h16.3v29.56h-16.3z"/><linearGradient id="aG" x1="305.91" x2="305.15" y1="312.968" y2="324.38" gradientUnits="userSpaceOnUse"><stop class="stopColorf34b6d svgShape" offset="0" stop-color="#f3554b"/><stop class="stopColore24067 svgShape" offset="1" stop-color="#d85b53"/></linearGradient><path fill="url(#aG)" d="M297.39 310.894h16.3v15.248h-16.3z"/><linearGradient id="aH" x1="322.462" x2="338.762" y1="311.362" y2="311.362" gradientUnits="userSpaceOnUse"><stop class="stopColorebf2ff svgShape" offset="0" stop-color="#f4ffeb"/><stop class="stopColore1e8ff svgShape" offset="1" stop-color="#eeffe1"/></linearGradient><path fill="url(#aH)" d="M322.462 296.581h16.3v29.56h-16.3z"/><linearGradient id="aI" x1="330.422" x2="330.808" y1="317.96" y2="324.832" gradientUnits="userSpaceOnUse"><stop class="stopColorfadf68 svgShape" offset="0" stop-color="#a9fa68"/><stop class="stopColoreac250 svgShape" offset="1" stop-color="#9ae45f"/></linearGradient><path fill="url(#aI)" d="M322.462 316.538h16.3v9.604h-16.3z"/><linearGradient id="aJ" x1="347.533" x2="363.834" y1="311.362" y2="311.362" gradientUnits="userSpaceOnUse"><stop class="stopColorebf2ff svgShape" offset="0" stop-color="#f4ffeb"/><stop class="stopColore1e8ff svgShape" offset="1" stop-color="#eeffe1"/></linearGradient><path fill="url(#aJ)" d="M347.533 296.581h16.3v29.56h-16.3z"/><linearGradient id="aK" x1="355.909" x2="355.539" y1="307.372" y2="322.345" gradientUnits="userSpaceOnUse"><stop class="stopColorf34b6d svgShape" offset="0" stop-color="#f3554b"/><stop class="stopColore24067 svgShape" offset="1" stop-color="#d85b53"/></linearGradient><path fill="url(#aK)" d="M347.533 306.842h16.3v19.3h-16.3z"/><linearGradient id="aL" x1="231.568" x2="230.58" y1="288.122" y2="328.108" gradientUnits="userSpaceOnUse"><stop class="stopColord1deff svgShape" offset="0" stop-color="#e5ffd1"/><stop class="stopColorb2c7ff svgShape" offset="1" stop-color="#b2f1ff"/></linearGradient><path fill="url(#aL)" d="M260.666 292.466v31.298a3.71 3.71 0 0 1-3.706 3.716h-51.772a3.71 3.71 0 0 1-3.706-3.716v-31.298a3.71 3.71 0 0 1 3.706-3.716h51.772a3.71 3.71 0 0 1 3.706 3.716z"/><linearGradient id="aM" x1="229.314" x2="228.326" y1="288.122" y2="328.108" gradientUnits="userSpaceOnUse"><stop class="stopColorebf2ff svgShape" offset="0" stop-color="#f4ffeb"/><stop class="stopColore1e8ff svgShape" offset="1" stop-color="#eeffe1"/></linearGradient><path fill="url(#aM)" d="M258.412 292.466v31.298a3.71 3.71 0 0 1-3.706 3.716h-51.772a3.71 3.71 0 0 1-3.706-3.716v-31.298a3.71 3.71 0 0 1 3.706-3.716h51.772a3.71 3.71 0 0 1 3.706 3.716z"/><linearGradient id="aN" x1="209.85" x2="247.79" y1="308.692" y2="308.692" gradientUnits="userSpaceOnUse"><stop class="stopColor909eff svgShape" offset="0" stop-color="#90ebff"/><stop class="stopColor6977e3 svgShape" offset="1" stop-color="#69cde3"/></linearGradient><path fill="url(#aN)" d="M243.112 295.16h-28.584c-2.582 0-4.678 2.095-4.678 4.657v17.75c0 2.562 2.096 4.658 4.678 4.658h28.584c2.582 0 4.678-2.096 4.678-4.658v-17.75c0-2.562-2.096-4.658-4.678-4.658zm-1.468 21.82a1.38 1.38 0 0 1-1.954.132l-8.455-7.291-2.025 1.741c-.274.223-.588.334-.891.334s-.618-.11-.871-.313l-2.066-1.772-8.455 7.27a1.364 1.364 0 0 1-.91.334c-.386 0-.76-.162-1.023-.456-.517-.628-.436-1.498.141-1.964l8.131-7.007-8.14-7.007a1.393 1.393 0 0 1-.163-1.924 1.379 1.379 0 0 1 1.063-.496c.334 0 .648.122.901.334l11.392 9.802 1.903-1.63a1.14 1.14 0 0 1 .223-.193l9.255-7.958c.253-.213.577-.335.9-.335a1.37 1.37 0 0 1 1.368 1.499 1.33 1.33 0 0 1-.476.922l-8.14 7.006 8.15 7.017c.284.243.446.577.476.952.02.375-.101.729-.334 1.002z"/><path fill="#fff" d="M162.33 261.379a1.1 1.1 0 0 1-.49-.688c-2.719-11.733-14.473-19.063-26.202-16.346a1.104 1.104 0 1 1-.498-2.15c6.248-1.448 12.692-.37 18.146 3.033 5.455 3.403 9.257 8.717 10.704 14.965a1.104 1.104 0 0 1-1.66 1.186z" class="colorffffff svgShape"/><path fill="#fff" d="M156.595 262.707a1.1 1.1 0 0 1-.49-.687c-1.984-8.563-10.57-13.922-19.139-11.94a1.104 1.104 0 1 1-.498-2.15c9.757-2.262 19.527 3.836 21.787 13.592a1.104 1.104 0 0 1-1.66 1.185z" class="colorffffff svgShape"/><path fill="#fff" d="M150.86 264.035a1.1 1.1 0 0 1-.492-.688c-1.21-5.224-6.846-8.743-12.072-7.53a1.104 1.104 0 1 1-.498-2.151 12.181 12.181 0 0 1 9.259 1.547 12.182 12.182 0 0 1 5.462 7.636 1.104 1.104 0 0 1-1.66 1.186z" class="colorffffff svgShape"/><circle cx="141.912" cy="263.461" r="3.672" fill="#fff" class="colorffffff svgShape"/><path fill="#060404" d="m49.621 478.386-2.689 11.233a3.921 3.921 0 0 0 3.716 4.672c9.911.332 29.392.003 32.99-.029a.535.535 0 0 0 .528-.515c.16-3.437-2.122-5.622-5.485-7.312l-12.965-8.73a.141.141 0 0 0-.08-.02l-16.015.7z" class="color060405 svgShape"/><path fill="#eaffd9" d="M49.62 478.385c.145 3.328 16.162 2.627 16.016-.7l.317-13.156-14.998-.466-1.336 14.322z" class="colorffdad9 svgShape"/><path fill="#060404" d="m103.49 478.386-2.689 11.233a3.921 3.921 0 0 0 3.716 4.672c9.911.332 29.392.003 32.99-.029a.535.535 0 0 0 .528-.515c.16-3.437-2.122-5.622-5.485-7.312l-12.965-8.73a.141.141 0 0 0-.08-.02l-16.015.7z" class="color060405 svgShape"/><path fill="#eaffd9" d="M103.488 478.385c.146 3.328 16.163 2.627 16.017-.7l.317-13.156-14.998-.466-1.336 14.322z" class="colorffdad9 svgShape"/><path fill="#65e3ff" d="m101.351 472.626-6.757-98.36-25.256 98.339c-.034 2.446-21.409 2.152-21.375-.294L68.256 338.15l52.36-2.523 1.567 136.999c0 2.807-20.832 2.807-20.832 0z" class="color657bff svgShape"/><path fill="#eaffd9" d="M46.542 327.743c-6.777-7.26 2.14-39.04 2.14-39.04l17.375 13.986-1.61 8.354M174.216 275.688l-4.636 3.048s-17.179 34.778-30.62 35.737c-9.027.642-27.922-23.011-27.922-23.011l14.5-16.209 15.548 14.798 21.647-19.455s-1.14-5.68 1.384-6.585c2.515-.904 2.632 2.669 2.632 2.669l9.201-10.314a1.924 1.924 0 1 1 2.75 2.687l-6.189 5.781 3.029 5.043a4.303 4.303 0 0 1-1.324 5.81z" class="colorffdad9 svgShape"/><path fill="#26d7fe" d="m122.278 297.292.009.122 2.352 48.91c0 5.716-61.503 5.716-61.503 0l3.7-41.714a17.893 17.893 0 0 1-2.136-.14c-.356-.057-.712-.094-1.058-.17-7.693-1.293-13.952-6.446-17.438-9.94-1.208-1.21-1.583-1.406-1.686-1.378.665-1.63 10.316-24.52 28.878-34.79 2.839-1.574 5.874-2.905 9.088-3.851a39.701 39.701 0 0 1 12.79-1.733c3.663.121 7.12.712 10.325 1.649 16.622 4.881 26.81 19.828 30.145 25.02-1.34 9.997-13.466 18.015-13.466 18.015z" class="color3dcfa4 svgShape"/><path fill="#ff3629" d="M44.518 292.982c-.028.065-.038.094-.038.094s-.028-.094.038-.094z" class="colorff4129 svgShape"/><path fill="#060404" d="M123.037 330.397h-15.505a2.722 2.722 0 0 1-2.644-3.367l6.35-26.037a2.722 2.722 0 0 1 2.646-2.077h15.504a2.722 2.722 0 0 1 2.645 3.367l-6.351 26.037a2.722 2.722 0 0 1-2.645 2.077z" class="color060405 svgShape"/><path fill="#eaffd9" d="m64.447 311.04 41.425 3.08s.943-5.926 3.33-4.524c2.378 1.402 0 3.43 0 3.43s13.586.117 10.014 8.67c-3.571 8.555-16.306 3.372-16.306 3.372s-45.753 14.047-56.368 2.672M86.327 234.854l.152 18.816s2.057 9.103 9.608 9.94c7.541.839 5.304-10.559 5.304-10.559a14.19 14.19 0 0 1-.362-1.79c-.79-5.39 1.504-9.256 1.504-9.256l-2.4-2.637-4.446-4.895-9.36.381z" class="colorffdad9 svgShape"/><path fill="#d45985" d="M90.45 240.034c3.342 6.237 10.579 11.227 10.579 11.227-.79-5.39 1.504-9.256 1.504-9.256l-2.4-2.637-2.951-2.867s-10.084-2.704-6.732 3.533z" class="colorfecdcb svgShape"/><path fill="#eaffd9" d="M81.013 229.282c-.25 4.11 4.15 5.327 5.134 5.539.077.02.115.02.154.039h.039s11.83 17.697 21.5 12.718c4.998-2.586 4.246-17.485 3.55-24.897-.25-2.528-.482-4.188-.482-4.188s-5.866-8.202-16.057-7.526c-10.19.694-9.129 16.887-9.129 16.887s-4.458-2.336-4.709 1.428z" class="colorffdad9 svgShape"/><path fill="#281211" d="M81.013 229.282c.251-3.764 4.709-1.428 4.709-1.428s-.733 2.663.618 2.856c1.332.212 2.49-9.264 2.49-9.264s13.78 4.208 22.56 1.235c2.838-.945 5.154-2.643 6.312-5.48 4.748-11.619-7.7-18.046-13.568-16.656s-5.944 3.126-12.66 3.686c0 0-11.986-1.563-15.344 10.345s10.21 26.489 10.21 26.489v-6.205H86.3a.59.59 0 0 1-.154-.039c-.984-.212-5.385-1.428-5.134-5.54z" class="color111228 svgShape"/><path fill="#eaffd9" d="M108.704 227.986c-.244-.79-.902-1.297-1.476-1.115-.568.172-.83.954-.577 1.742M100.392 229.32c-.244-.79-.91-1.296-1.477-1.115-.567.172-.83.953-.585 1.743" class="colorffdad9 svgShape"/><path fill="#281211" d="M98.33 229.952c.247.794.9 1.29 1.472 1.114.566-.169.83-.953.588-1.749-.246-.787-.906-1.29-1.472-1.114-.572.177-.836.955-.589 1.749zM106.647 228.617c.24.796.9 1.29 1.465 1.115.574-.17.837-.954.59-1.748-.24-.789-.9-1.29-1.473-1.114-.566.175-.83.953-.582 1.747zM108.649 226.073c-.667-.08-1.191-.248-1.58-.125-.187.04-.377.163-.58.329a3.782 3.782 0 0 1-.665.607c.014-.324.07-.656.202-.964a1.39 1.39 0 0 1 .854-.697 1.476 1.476 0 0 1 1.075.16c.303.164.516.412.694.69zM99.675 227.265c-.667-.08-1.191-.248-1.581-.124-.186.04-.377.162-.578.328a3.8 3.8 0 0 1-.666.607c.013-.323.07-.655.201-.963a1.39 1.39 0 0 1 .855-.697 1.476 1.476 0 0 1 1.074.16c.304.164.517.412.695.69zM103.624 228.182c.244.778.434 1.565.616 2.354.197.787.295 1.598.61 2.283.153.349.357.634.645.898.272.272.647.569.78 1.042.126.464.001.923-.21 1.29-.229.363-.522.651-.832.915.469-.636.944-1.411.676-2.082-.131-.31-.419-.55-.734-.817a2.985 2.985 0 0 1-.78-1.04c-.348-.802-.422-1.625-.532-2.421a31.428 31.428 0 0 1-.239-2.422z" class="color111228 svgShape"/><path fill="#fff" d="M102.462 240.58c.246 1.529 1.527 2.596 2.857 2.382 1.323-.212 2.206-1.626 1.96-3.156-.004-.027-.014-.047-.018-.068-1.3.534-2.898.79-4.803.771.003.02 0 .042.004.07z" class="colorffffff svgShape"/><linearGradient id="aO" x1="2561.095" x2="2570.825" y1="-518.255" y2="-518.255" gradientTransform="rotate(-30.325 2627.255 4286.054)" gradientUnits="userSpaceOnUse"><stop class="stopColor909eff svgShape" offset="0" stop-color="#90ebff"/><stop class="stopColor6977e3 svgShape" offset="1" stop-color="#69cde3"/></linearGradient><path fill="url(#aO)" d="M151.628 166.2a4.863 4.863 0 1 1-5.982 7.671 4.863 4.863 0 0 1-.842-6.824 4.863 4.863 0 0 1 6.824-.846z"/><linearGradient id="aP" x1="-2377.361" x2="-2334.422" y1="-929.874" y2="-929.874" gradientTransform="rotate(-90 -553.671 -1632.183)" gradientUnits="userSpaceOnUse"><stop class="stopColor909eff svgShape" offset="0" stop-color="#90ebff"/><stop class="stopColor6977e3 svgShape" offset="1" stop-color="#69cde3"/></linearGradient><path fill="url(#aP)" d="m158.341 151.692-3.14 2.903a1.032 1.032 0 0 1-1.046.217 16.222 16.222 0 0 0-2.43-.67 1.036 1.036 0 0 1-.79-.72l-1.203-4.109a1.036 1.036 0 0 0-1.12-.737l-5.176.64c-.504.062-.887.48-.908.989l-.165 4.28a1.023 1.023 0 0 1-.588.89c-.758.354-1.491.77-2.193 1.246a1.032 1.032 0 0 1-1.067.045l-3.76-2.056a1.035 1.035 0 0 0-1.313.272l-3.206 4.111c-.31.399-.287.968.057 1.339l2.91 3.145c.259.282.347.685.217 1.046-.292.798-.516 1.61-.674 2.431-.07.378-.354.678-.72.787l-4.111 1.204c-.488.143-.8.617-.738 1.121l.64 5.175c.063.504.481.888.989.908l4.277.166c.384.019.73.242.892.59.354.757.768 1.49 1.241 2.193.215.32.227.731.045 1.067l-2.05 3.754c-.244.443-.13.999.271 1.312l4.112 3.206c.4.313.967.287 1.34-.055l3.143-2.905a1.024 1.024 0 0 1 1.044-.215c.797.288 1.609.511 2.43.67.376.073.678.353.79.721l1.202 4.108c.144.487.618.8 1.122.737l5.175-.64c.504-.062.887-.48.908-.989l.168-4.279a1.03 1.03 0 0 1 .586-.894c.758-.353 1.49-.766 2.195-1.241a1.024 1.024 0 0 1 1.064-.047l3.76 2.056a1.035 1.035 0 0 0 1.313-.271l3.206-4.112a1.035 1.035 0 0 0-.057-1.338l-2.91-3.146a1.024 1.024 0 0 1-.214-1.044c.289-.8.51-1.61.67-2.43a1.03 1.03 0 0 1 .723-.788l4.11-1.205c.487-.144.8-.618.737-1.122l-.64-5.175a1.036 1.036 0 0 0-.989-.908l-4.277-.166a1.036 1.036 0 0 1-.892-.589 16.22 16.22 0 0 0-1.242-2.194 1.024 1.024 0 0 1-.046-1.065l2.052-3.755a1.038 1.038 0 0 0-.274-1.314l-4.111-3.206a1.033 1.033 0 0 0-1.339.056zm-1.585 24.676c-3.495 4.482-9.964 5.286-14.453 1.785-4.48-3.493-5.278-9.964-1.783-14.446 3.495-4.482 9.966-5.285 14.446-1.792 4.489 3.5 5.285 9.97 1.79 14.453z"/><linearGradient id="aQ" x1="-2324.867" x2="-2318.562" y1="-916.926" y2="-910.015" gradientTransform="rotate(-90 -553.671 -1632.183)" gradientUnits="userSpaceOnUse"><stop class="stopColor909eff svgShape" offset="0" stop-color="#90ebff"/><stop class="stopColor6977e3 svgShape" offset="1" stop-color="#69cde3"/></linearGradient><path fill="url(#aQ)" d="m170.776 125.044-2.033 1.786a.653.653 0 0 1-.665.12c-.5-.194-1.01-.348-1.527-.462a.655.655 0 0 1-.487-.468l-.696-2.618a.656.656 0 0 0-.698-.484l-3.283.323a.656.656 0 0 0-.59.61l-.173 2.706a.648.648 0 0 1-.385.554 9.981 9.981 0 0 0-1.408.753.653.653 0 0 1-.675.011l-2.346-1.36a.655.655 0 0 0-.835.151l-2.093 2.55a.655.655 0 0 0 .015.848l1.79 2.036c.16.182.21.438.121.665-.197.5-.351 1.01-.465 1.527a.648.648 0 0 1-.467.486l-2.62.696a.656.656 0 0 0-.484.698l.322 3.283c.032.32.29.57.612.59l2.702.173a.655.655 0 0 1 .555.387c.212.485.463.956.75 1.408.131.205.133.466.012.675l-1.356 2.342a.653.653 0 0 0 .15.834l2.55 2.093a.657.657 0 0 0 .85-.013l2.033-1.788a.648.648 0 0 1 .664-.12c.5.195 1.01.35 1.527.463a.655.655 0 0 1 .487.469l.696 2.617c.083.31.378.516.698.484l3.284-.323a.656.656 0 0 0 .59-.61l.174-2.705a.651.651 0 0 1 .385-.556c.485-.212.954-.461 1.408-.75a.648.648 0 0 1 .674-.013l2.346 1.36a.655.655 0 0 0 .834-.15l2.093-2.55a.655.655 0 0 0-.015-.848l-1.79-2.036a.648.648 0 0 1-.12-.664c.196-.501.35-1.01.463-1.527a.651.651 0 0 1 .47-.486l2.618-.698a.656.656 0 0 0 .485-.697l-.323-3.284a.656.656 0 0 0-.611-.59l-2.703-.173a.655.655 0 0 1-.555-.387 10.263 10.263 0 0 0-.75-1.407.648.648 0 0 1-.013-.675l1.357-2.343a.657.657 0 0 0-.152-.835l-2.55-2.093a.653.653 0 0 0-.847.015zm-1.394 15.583a6.515 6.515 0 1 1-10.07-8.268 6.515 6.515 0 0 1 10.07 8.268z"/><linearGradient id="aR" x1="452.602" x2="445.465" y1="139.207" y2="166.016" gradientUnits="userSpaceOnUse"><stop class="stopColor3dcfa4 svgShape" offset="0" stop-color="#3db5cf"/><stop class="stopColor30bb93 svgShape" offset="1" stop-color="#30a2bb"/></linearGradient><circle cx="452.708" cy="138.805" r="23.452" fill="url(#aR)"/><path fill="#fff" d="M466.688 135.288s-3.299 16.208-13.98 20.763c-10.68-4.555-13.979-20.763-13.979-20.763 9.324-1.79 13.98-9.866 13.98-9.866s4.655 8.075 13.979 9.866z" class="colorffffff svgShape"/><path fill="#503937" d="M450.933 145.967c-.333 0-.653-.133-.889-.369l-2.361-2.361a1.256 1.256 0 1 1 1.777-1.777l1.473 1.473 5.834-5.833a1.257 1.257 0 0 1 1.776 1.777l-6.722 6.722a1.257 1.257 0 0 1-.888.368z" class="color373a50 svgShape"/><linearGradient id="aS" x1="300.661" x2="294.61" y1="109.503" y2="132.236" gradientUnits="userSpaceOnUse"><stop class="stopColor909eff svgShape" offset="0" stop-color="#90ebff"/><stop class="stopColor6977e3 svgShape" offset="1" stop-color="#69cde3"/></linearGradient><circle cx="300.752" cy="109.162" r="19.886" fill="url(#aS)"/><path fill="#fff" d="M300.751 123.002c-7.63 0-13.839-6.209-13.839-13.84s6.209-13.84 13.84-13.84c7.63 0 13.839 6.21 13.839 13.84s-6.208 13.84-13.84 13.84zm0-26.355c-6.9 0-12.514 5.614-12.514 12.515 0 6.901 5.614 12.515 12.514 12.515 6.901 0 12.516-5.614 12.516-12.515 0-6.9-5.615-12.515-12.516-12.515z" class="colorffffff svgShape"/><path fill="#fff" d="M300.753 103.427a13.854 13.854 0 0 1-9.27-3.554l.885-.985a12.532 12.532 0 0 0 8.385 3.214c3.099 0 6.077-1.141 8.386-3.214l.884.985a13.856 13.856 0 0 1-9.27 3.554zM292.375 119.442l-.886-.985c2.549-2.296 5.84-3.56 9.264-3.56s6.716 1.264 9.264 3.56l-.886.985c-2.305-2.077-5.28-3.22-8.378-3.22s-6.072 1.143-8.378 3.22z" class="colorffffff svgShape"/><path fill="#fff" d="M300.751 123.002c-4.449 0-7.934-6.08-7.934-13.84s3.485-13.84 7.934-13.84 7.936 6.08 7.936 13.84-3.486 13.84-7.936 13.84zm0-26.355c-3.582 0-6.61 5.731-6.61 12.515 0 6.784 3.028 12.515 6.61 12.515 3.584 0 6.611-5.73 6.611-12.515 0-6.784-3.027-12.515-6.61-12.515z" class="colorffffff svgShape"/><path fill="#fff" d="M300.089 95.985h1.324v26.355h-1.324z" class="colorffffff svgShape"/><path fill="#fff" d="M287.575 108.5h26.354v1.324h-26.354z" class="colorffffff svgShape"/></svg>